<?xml version="1.0" standalone="no"?><!DOCTYPE svg PUBLIC "-//W3C//DTD SVG 1.1//EN" "http://www.w3.org/Graphics/SVG/1.1/DTD/svg11.dtd"><svg t="1546788308423" class="icon" style="" viewBox="0 0 1024 1024" version="1.1" xmlns="http://www.w3.org/2000/svg" p-id="13799" xmlns:xlink="http://www.w3.org/1999/xlink" width="32" height="32"><defs><style type="text/css"></style></defs><path d="M98.4 244l407.2-146.4 416.8 150.4-84.8 493.6-319.2 181.6-330.4-171.2z" fill="#e9f3fd" p-id="13800"></path><path d="M512 128l376 138.4-78.4 460.8-297.6 160-297.6-160-78.4-460.8 376-138.4m0-64l-448 160 92 544 356 192 355.2-192 92.8-544-448-160z" fill="#007fff" p-id="13801"></path><path d="M688 704h80l-256-560-256 560h80l52.8-112h245.6l53.6 112z m-260.8-192l84.8-178.4 84.8 178.4h-169.6z" fill="#007fff" p-id="13802"></path></svg>