<?xml version="1.0" standalone="no"?><!DOCTYPE svg PUBLIC "-//W3C//DTD SVG 1.1//EN" "http://www.w3.org/Graphics/SVG/1.1/DTD/svg11.dtd"><svg t="1546787653472" class="icon" style="" viewBox="0 0 1024 1024" version="1.1" xmlns="http://www.w3.org/2000/svg" p-id="5666" xmlns:xlink="http://www.w3.org/1999/xlink" width="32" height="32"><defs><style type="text/css"></style></defs><path d="M230.524 2.234h558.049c126.083 0 228.293 102.209 228.293 228.293v558.048c0 126.079-102.21 228.293-228.293 228.293h-558.049c-126.082 0-228.293-102.213-228.293-228.293v-558.048c0-126.084 102.211-228.293 228.293-228.293z" fill="#FAC552" p-id="5667"></path><path d="M384.929 260.134c-37.933 2.011-56.878 21.984-56.878 59.869v329.291c0 45.937-14.969 67.873-44.903 65.861-11.974 0-27.971-4.961-47.899-14.972-19.971-9.965-33.958-14.967-41.909-14.967-21.983 4.025-34.896 19.974-38.915 47.9 4.022 51.921 49.861 78.811 137.701 80.825 97.759-2.013 147.667-53.884 149.678-155.664v-338.273c-2.012-37.885-20.955-57.858-56.879-59.869zM699.253 475.67c-57.906-17.964-86.815-37.888-86.815-59.871 0-29.935 20.956-45.885 62.864-47.897 23.949 2.012 43.875 7.014 59.874 14.967 17.958 4.023 31.901 5.989 41.908 5.989 29.935 0 46.867-18.944 50.892-56.881-4.025-43.875-53.886-68.849-149.678-74.839-119.742 10.014-182.607 67.872-188.593 173.629 0 69.881 52.854 119.744 158.657 149.679 63.849 17.958 95.793 38.915 95.793 62.863-2.011 43.919-27.968 65.856-77.83 65.856-19.973 0-45.931-4.96-77.831-14.966-17.962-7.952-34.94-12.955-50.891-14.967-31.947 4.025-48.927 21.983-50.893 53.884 1.965 51.921 63.847 78.811 185.6 80.825 123.718-5.987 189.577-62.864 197.573-170.631 0.002-79.798-56.877-135.693-170.629-167.639z" fill="#014A51" p-id="5668"></path></svg>