<?xml version="1.0" standalone="no"?><!DOCTYPE svg PUBLIC "-//W3C//DTD SVG 1.1//EN" "http://www.w3.org/Graphics/SVG/1.1/DTD/svg11.dtd"><svg t="1546788060431" class="icon" style="" viewBox="0 0 1024 1024" version="1.1" xmlns="http://www.w3.org/2000/svg" p-id="8974" xmlns:xlink="http://www.w3.org/1999/xlink" width="32" height="32"><defs><style type="text/css"></style></defs><path d="M942.08 0H81.92C36.864 0 0 36.864 0 81.92l81.92 716.8c0 45.056 36.864 81.92 81.92 81.92l344.064 143.36L860.16 880.64c45.056 0 81.92-36.864 81.92-81.92l81.92-716.8c0-45.056-36.864-81.92-81.92-81.92z m-61.44 778.24c0 22.528-18.432 40.96-40.96 40.96l-333.824 143.36L184.32 819.2c-22.528 0-40.96-18.432-40.96-40.96L61.44 102.4c0-22.528 18.432-40.96 40.96-40.96h819.2c22.528 0 40.96 18.432 40.96 40.96l-81.92 675.84z" fill="" p-id="8975"></path><path d="M122.88 102.4l81.92 675.84 307.2 122.88 307.2-122.88 81.92-675.84z" fill="#FFEA00" p-id="8976"></path><path d="M747.52 436.224l-61.44-12.288v6.144H389.12l-20.48-122.88h368.64v-61.44H358.4v-4.096L327.68 245.76h-20.48v4.096h-10.24l40.96 245.76L368.64 491.52h305.152l-26.624 153.6-114.688 32.768V675.84l-141.312-30.72-12.288-75.776-61.44 8.192 16.384 92.16L327.68 696.32l10.24 2.048v2.048h8.192l169.984 36.864 2.048 10.24 204.8-61.44-12.288-55.296z" fill="" p-id="8977"></path></svg>