<?xml version="1.0" standalone="no"?><!DOCTYPE svg PUBLIC "-//W3C//DTD SVG 1.1//EN" "http://www.w3.org/Graphics/SVG/1.1/DTD/svg11.dtd"><svg t="1546788163472" class="icon" style="" viewBox="0 0 1024 1024" version="1.1" xmlns="http://www.w3.org/2000/svg" p-id="10993" xmlns:xlink="http://www.w3.org/1999/xlink" width="32" height="32"><defs><style type="text/css"></style></defs><path d="M511.998 92c-11.32 0-22.332 2.342-32.064 7.858l-308.384 178.08c-19.96 11.494-32.082 33.206-32.082 56.308v355.508c0 23.086 12.122 44.77 32.082 56.298l80.538 46.494c39.12 19.27 53.556 18.986 71.368 18.986 57.932 0 91-35.154 91-96.252V364.36c0-4.958-4.302-8.512-9.168-8.512H366.66c-4.94 0-9.17 3.554-9.17 8.512v350.92c0 27.08-28.2 54.314-73.974 31.438L199.7 697.608c-2.954-1.606-5.232-4.466-5.232-7.856V334.246c0-3.372 2.242-6.816 5.232-8.512l307.726-177.424a9.06 9.06 0 0 1 9.168 0l307.712 177.424c2.936 1.76 5.25 5.032 5.25 8.512v355.508c0 3.388-1.714 6.872-4.594 8.502l-308.37 177.434c-2.644 1.578-6.29 1.578-9.168 0L428.2 828.552c-2.352-1.386-5.578-1.278-7.856 0-21.856 12.402-25.976 13.834-46.484 20.954-5.05 1.758-12.724 4.492 2.624 13.098l103.452 60.882c9.844 5.7 20.818 8.516 32.064 8.516 11.428 0 22.24-2.816 32.084-8.516l308.386-177.432c19.944-11.602 32.066-33.212 32.066-56.298V334.246c0-23.104-12.122-44.77-32.066-56.308l-308.386-178.08C534.418 94.342 523.336 92 511.998 92z" fill="#008CDB" p-id="10994"></path><path d="M594.502 341.45c-87.81 0-140.11 37.36-140.11 99.504 0 67.42 51.898 85.95 136.172 94.28 100.826 9.872 108.682 24.674 108.682 44.526 0 34.414-27.434 49.1-92.314 49.1-81.502 0-99.402-20.352-105.4-60.894-0.71-4.338-4.064-7.848-8.512-7.848h-39.94c-4.922 0-9.168 4.238-9.168 9.16 0 51.9 28.238 113.276 163.022 113.276 97.582 0 153.86-38.316 153.86-105.418 0-66.52-45.45-84.382-140.114-96.906-95.63-12.642-104.746-18.832-104.746-41.234 0-18.494 7.73-43.212 78.568-43.212 63.274 0 86.642 13.644 96.232 56.3 0.838 4.02 4.376 7.202 8.512 7.202h39.94c2.46 0 4.854-1.504 6.548-3.264 1.676-1.886 2.862-4.01 2.624-6.542-6.182-73.488-55.182-108.03-153.856-108.03z" fill="#008CDB" p-id="10995"></path></svg>