<?xml version="1.0" standalone="no"?><!DOCTYPE svg PUBLIC "-//W3C//DTD SVG 1.1//EN" "http://www.w3.org/Graphics/SVG/1.1/DTD/svg11.dtd"><svg t="1546788281291" class="icon" style="" viewBox="0 0 1024 1024" version="1.1" xmlns="http://www.w3.org/2000/svg" p-id="13409" xmlns:xlink="http://www.w3.org/1999/xlink" width="32" height="32"><defs><style type="text/css"></style></defs><path d="M514.4 786.4c-102.4 83.2-206.4 132-219.2 76-48.8-52.8-36-130.4-6.4-221.6-113.6-25.6-195.2-66.4-199.2-142.4 11.2-48.8 84.8-92 194.4-132.8-27.2-92.8-38.4-177.6 19.2-226.4 37.6-28.8 111.2 7.2 208.8 88 103.2-95.2 169.6-111.2 220-91.2 34.4 46.4 43.2 112 18.4 240.8 100.8 7.2 176.8 56 188.8 120.8 16.8 52.8-67.2 98.4-188 140 22.4 68.8 21.6 141.6 3.2 215.2-12.8 64.8-105.6 27.2-240-66.4z" fill="#e9f3fd" p-id="13410"></path><path d="M958.4 503.2c-0.8-60.8-76.8-113.6-195.2-143.2 5.6-20.8 9.6-40.8 12.8-60 14.4-92-1.6-156-44.8-179.2-52.8-29.6-134.4 9.6-218.4 95.2-14.4-14.4-28-27.2-42.4-39.2-71.2-59.2-134.4-78.4-176.8-54.4-42.4 24.8-57.6 88.8-42.4 180 3.2 20 8 40 13.6 61.6-20.8 5.6-41.6 12-60 19.2-87.2 32.8-134.4 78.4-134.4 128 0.8 48.8 48.8 93.6 136 125.6 18.4 6.4 38.4 12.8 59.2 17.6-5.6 20.8-9.6 40.8-12.8 60.8-14.4 92 1.6 156 44.8 180 12 6.4 25.6 9.6 40 9.6 38.4 0 85.6-22.4 136.8-66.4 13.6-12 28-24.8 41.6-39.2 14.4 14.4 28 27.2 42.4 39.2 51.2 42.4 98.4 64.8 136 64.8 15.2 0 28.8-3.2 40.8-10.4 53.6-30.4 60.8-123.2 28.8-241.6 119.2-32.8 195.2-86.4 194.4-148z m-240.8-358.4c31.2 17.6 42.4 72 29.6 150.4-3.2 18.4-7.2 38.4-12 58.4-37.6-8-78.4-13.6-122.4-17.6-25.6-36.8-52-70.4-80-100 61.6-63.2 119.2-96.8 158.4-96.8 10.4 0 19.2 1.6 26.4 5.6z m-75.2 432.8c-13.6 24-28 48-43.2 71.2-26.4 2.4-53.6 3.2-82.4 3.2-28 0-56-0.8-83.2-2.4-15.2-22.4-29.6-46.4-44-70.4-13.6-24-26.4-48-37.6-71.2 11.2-24 23.2-48 36.8-72 14.4-24.8 28.8-48.8 43.2-70.4 27.2-2.4 54.4-3.2 82.4-4h9.6c25.6 0 50.4 0.8 73.6 2.4 15.2 22.4 29.6 46.4 44 71.2 13.6 23.2 25.6 47.2 37.6 71.2-11.2 23.2-23.2 48-36.8 71.2z m52-37.6c13.6 31.2 25.6 61.6 34.4 89.6-28.8 6.4-60 12-93.6 15.2 11.2-17.6 21.6-35.2 32-53.6 9.6-16.8 19.2-34.4 27.2-51.2z m-177.6 216.8c-20.8-23.2-42.4-48.8-62.4-76.8 17.6 0.8 35.2 1.6 52.8 1.6h9.6c20.8 0 41.6-0.8 61.6-2.4-19.2 26.4-40 52.8-61.6 77.6z m-120-109.6c-32.8-3.2-64-8-93.6-14.4 8.8-29.6 20-60 33.6-90.4 8.8 17.6 17.6 34.4 28 52 9.6 17.6 20.8 35.2 32 52.8z m-60.8-173.6c-13.6-30.4-24.8-60-33.6-89.6 28.8-6.4 60-12 92.8-16-10.4 16.8-21.6 34.4-31.2 52.8-10.4 18.4-19.2 36-28 52.8z m177.6-216.8c21.6 23.2 42.4 48.8 62.4 76.8-20.8-0.8-41.6-1.6-62.4-0.8-20.8 0-41.6 0.8-61.6 2.4 20.8-29.6 41.6-55.2 61.6-78.4z m152.8 163.2c-10.4-18.4-21.6-36-32.8-53.6 33.6 3.2 64.8 8 93.6 14.4-8.8 29.6-20 60-33.6 91.2-8-17.6-17.6-34.4-27.2-52z m-385.6-122.4c-12.8-77.6-2.4-132.8 28.8-150.4 8-4.8 16.8-6.4 26.4-6.4 30.4 0 72 20 117.6 58.4 13.6 11.2 27.2 24 40.8 37.6-26.4 29.6-53.6 64-79.2 101.6-42.4 4-83.2 10.4-120.8 19.2-5.6-21.6-10.4-40.8-13.6-60z m-63.2 311.2c-74.4-27.2-116.8-63.2-116.8-98.4 0-36 41.6-72 115.2-100.8 18.4-7.2 37.6-12.8 58.4-18.4 12 37.6 27.2 76.8 45.6 116.8-18.4 40-33.6 80-44.8 118.4-20-5.6-40-11.2-57.6-17.6z m239.2 207.2c-60 51.2-112.8 70.4-144 52.8s-42.4-72-29.6-150.4c3.2-18.4 7.2-38.4 12.8-58.4 38.4 8 79.2 14.4 122.4 17.6 25.6 36.8 52 70.4 79.2 100-14.4 13.6-28 27.2-40.8 38.4z m264.8 50.4c-31.2 17.6-83.2-0.8-144-51.2-13.6-11.2-27.2-24-40.8-37.6 27.2-29.6 53.6-64 78.4-101.6 43.2-4 84.8-10.4 121.6-19.2 30.4 108.8 22.4 188-15.2 209.6z m35.2-243.2c-12-37.6-27.2-76.8-45.6-116.8 18.4-40.8 33.6-80 44.8-118.4 108.8 27.2 173.6 72.8 174.4 116 0 43.2-64.8 89.6-173.6 119.2z" fill="#007fff" p-id="13411"></path><path d="M440.8 507.2c0 40.8 33.6 74.4 74.4 74.4s74.4-33.6 74.4-74.4c0-40.8-33.6-74.4-74.4-74.4-40.8 0-74.4 32.8-74.4 74.4z" fill="#007fff" p-id="13412"></path></svg>