<?xml version="1.0" standalone="no"?><!DOCTYPE svg PUBLIC "-//W3C//DTD SVG 1.1//EN" "http://www.w3.org/Graphics/SVG/1.1/DTD/svg11.dtd"><svg t="1546788343224" class="icon" style="" viewBox="0 0 1024 1024" version="1.1" xmlns="http://www.w3.org/2000/svg" p-id="14772" xmlns:xlink="http://www.w3.org/1999/xlink" width="32" height="32"><defs><style type="text/css"></style></defs><path d="M536.6 213.5c0-66.2-37.7-140.8-92.9-169.1v155.9H288.1V44.5c-55.1 28.3-92.9 102.8-92.9 169.1 0 65.7 37.1 122.7 91.6 151.3l-15.7 514.2c-2 63.3 39.1 108.1 91.5 108.1h6.7c52.4 0 93.5-44.8 91.5-108.1L445 364.8c54.5-28.6 91.6-85.6 91.6-151.3zM365.9 928.6c-18 0-32.5-14.6-32.5-32.5 0-18 14.6-32.5 32.5-32.5 18 0 32.5 14.6 32.5 32.5 0.1 17.9-14.5 32.5-32.5 32.5z" fill="#B9D5EA" p-id="14773"></path><path d="M536.6 206.6c0-63.5-37.7-135-92.9-162.2V194H288.1V44.5c-55.1 27.1-92.9 98.6-92.9 162.2 0 63 37.1 127.7 91.6 155.1L271.1 845c-2 60.7 39.1 103.7 91.5 103.7h6.7c52.4 0 93.5-43 91.5-103.7L445 361.7c54.5-27.4 91.6-92.1 91.6-155.1zM365.9 934.5c-23.6 0-42.6-21.8-42.6-48.7 0-26.9 19.1-48.8 42.6-48.8 23.6 0 42.6 21.8 42.6 48.8 0.1 26.9-19 48.7-42.6 48.7z" fill="#FFFFFF" p-id="14774"></path><path d="M443.7 44.5v155.9h92.4c0-0.1-10.3-104.5-92.4-155.9z" fill="#B9D5EA" p-id="14775"></path><path d="M369.3 997h-6.7c-26.6 0-51.4-10.5-69.9-29.6-21.5-22.2-32.7-53.7-31.6-88.8l15.5-508c-56.5-32.1-91.4-91.8-91.4-157.1 0-34.3 9.6-71.1 26.9-103.5 18.1-33.7 43.4-60.1 71.4-74.5 3.1-1.6 6.8-1.5 9.8 0.4 3 1.8 4.8 5 4.8 8.5v145.9h135.6V44.5c0-3.5 1.8-6.7 4.8-8.5 3-1.8 6.7-2 9.8-0.4 28 14.3 53.3 40.8 71.4 74.5 17.4 32.4 26.9 69.2 26.9 103.5 0 65.3-34.8 124.9-91.4 157.1l15.5 508c1.1 35.1-10.1 66.6-31.6 88.8-18.5 19-43.3 29.5-69.8 29.5zM278.1 62.3c-42.4 30.4-72.9 92.1-72.9 151.2 0 60 33 114.5 86.2 142.4 3.4 1.8 5.5 5.3 5.4 9.2l-15.7 514.2c-0.9 29.6 8.3 56 26 74.2 14.7 15.2 34.4 23.5 55.5 23.5h6.7c21.1 0 40.8-8.4 55.5-23.5 17.7-18.3 26.9-44.6 26-74.2L435 365.1c-0.1-3.8 2-7.4 5.4-9.2 53.2-27.9 86.2-82.4 86.2-142.4 0-59.2-30.4-120.8-72.9-151.2v138c0 5.5-4.5 10-10 10H288.1c-5.5 0-10-4.5-10-10v-138z m87.8 876.3c-23.5 0-42.5-19.1-42.5-42.5 0-23.5 19.1-42.5 42.5-42.5 23.5 0 42.5 19.1 42.5 42.5 0.1 23.4-19 42.5-42.5 42.5z m0-65.1c-12.4 0-22.5 10.1-22.5 22.5s10.1 22.5 22.5 22.5 22.5-10.1 22.5-22.5c0.1-12.4-10.1-22.5-22.5-22.5z" fill="#322E63" p-id="14776"></path><path d="M431.7 294H300.1c-6.6 0-12-5.4-12-12v-19c0-6.6 5.4-12 12-12h131.6c6.6 0 12 5.4 12 12v19c0 6.6-5.4 12-12 12z" fill="#B9D5EA" p-id="14777"></path><path d="M431.7 304H300.1c-12.1 0-22-9.9-22-22v-19c0-12.1 9.9-22 22-22h131.6c12.1 0 22 9.9 22 22v19c0 12.1-9.9 22-22 22z m-131.6-43c-1.1 0-2 0.9-2 2v19c0 1.1 0.9 2 2 2h131.6c1.1 0 2-0.9 2-2v-19c0-1.1-0.9-2-2-2H300.1zM536.1 210.3h-92.4c-5.5 0-10-4.5-10-10s4.5-10 10-10h92.4c5.5 0 10 4.5 10 10s-4.5 10-10 10zM365.9 748.6c-5.5 0-10-4.5-10-10v-315c0-5.5 4.5-10 10-10s10 4.5 10 10v315c0 5.5-4.5 10-10 10z" fill="#322E63" p-id="14778"></path><path d="M738.2 48H635.9v144l30.2 29.5V719c0 6.6 5.4 12 12 12h18c6.6 0 12-5.4 12-12V221.5l30.2-29.5V48z" fill="#FFFFFF" p-id="14779"></path><path d="M666.1 543h42v96.5h-42z" fill="#B9D5EA" p-id="14780"></path><path d="M696.1 741h-18c-12.1 0-22-9.9-22-22V225.7l-27.2-26.5c-1.9-1.9-3-4.5-3-7.2V48c0-5.5 4.5-10 10-10h102.3c5.5 0 10 4.5 10 10v144c0 2.7-1.1 5.3-3 7.2L718 225.7V719c0.1 12.1-9.8 22-21.9 22z m-50.2-553.2l27.2 26.5c1.9 1.9 3 4.5 3 7.2V719c0 1.1 0.9 2 2 2h18c1.1 0 2-0.9 2-2V221.5c0-2.7 1.1-5.3 3-7.2l27.2-26.5V58H646v129.8z" fill="#322E63" p-id="14781"></path><path d="M737.3 986H636.9c-13.2 0-24-10.8-24-24V625.8c0-13.2 10.8-24 24-24h100.4c13.2 0 24 10.8 24 24V962c0 13.2-10.8 24-24 24z" fill="#E8955D" p-id="14782"></path><path d="M737.3 948.6H636.9c-13.2 0-24-10.8-24-24V625.8c0-13.2 10.8-24 24-24h100.4c13.2 0 24 10.8 24 24v298.7c0 13.3-10.8 24.1-24 24.1z" fill="#FFB850" p-id="14783"></path><path d="M737.3 996H636.9c-18.7 0-34-15.3-34-34V625.8c0-18.7 15.3-34 34-34h100.4c18.7 0 34 15.3 34 34V962c0 18.7-15.3 34-34 34zM636.9 611.8c-7.7 0-14 6.3-14 14V962c0 7.7 6.3 14 14 14h100.4c7.7 0 14-6.3 14-14V625.8c0-7.7-6.3-14-14-14H636.9z" fill="#322E63" p-id="14784"></path><path d="M687.1 996c-5.5 0-10-4.5-10-10V738.6c0-5.5 4.5-10 10-10s10 4.5 10 10V986c0 5.5-4.5 10-10 10z" fill="#322E63" p-id="14785"></path></svg>